<svg xmlns="http://www.w3.org/2000/svg" width="560" height="416" fill="none"><g clip-path="url(#a)"><path fill="#FAF6E7" d="M422.76 134.387 418.624 123l-4.136 11.387L404 138.878l10.488 4.49 4.136 11.387 4.136-11.387 10.488-4.49-10.488-4.491ZM457.76 203.387 453.624 192l-4.136 11.387L439 207.878l10.488 4.49 4.136 11.387 4.136-11.387 10.488-4.49-10.488-4.491Z"/><path fill="#AEEFEB" d="m475.607 296.003-21.107-9.75-2.104 23.143-23.166 2.104 9.773 21.107L420 346l19.003 13.393-9.773 21.107 23.166 2.081 2.104 23.166 21.107-9.773L489 415V277l-13.393 19.003Z"/><path fill="#336AEA" d="m502.393 395.997 21.107 9.75 2.104-23.143 23.166-2.104-9.773-21.107L558 346l-19.003-13.393 9.773-21.107-23.166-2.081-2.104-23.166-21.107 9.773L489 277v138l13.393-19.003Z"/></g><defs><clipPath id="a"><path fill="#fff" d="M0 4a4 4 0 0 1 4-4h552a4 4 0 0 1 4 4v408a4 4 0 0 1-4 4H4a4 4 0 0 1-4-4V4Z"/></clipPath></defs></svg>